<?xml version="1.0" standalone="no"?><!DOCTYPE svg PUBLIC "-//W3C//DTD SVG 1.1//EN" "http://www.w3.org/Graphics/SVG/1.1/DTD/svg11.dtd"><svg class="icon" width="200px" height="200.00px" viewBox="0 0 1024 1024" version="1.1" xmlns="http://www.w3.org/2000/svg"><path fill="#ffffff" d="M543.99048 351.99384a31.99944 31.99944 0 0 0-63.99888 0v215.164235l-91.454399 152.317334a31.99944 31.99944 0 1 0 54.911039 32.959423l95.99832-159.9972A31.99944 31.99944 0 0 0 543.99048 575.98992V351.99384zM415.99272 0a31.99944 31.99944 0 0 0 0 63.99888H447.99216v68.478802a448.056159 448.056159 0 0 0-209.468334 798.322029l-38.527326 38.527326a31.99944 31.99944 0 0 0 45.247208 45.311207l47.743165-47.743165A446.072194 446.072194 0 0 0 511.99104 1023.98208a446.072194 446.072194 0 0 0 219.004168-57.087001l47.743164 47.743165a31.99944 31.99944 0 0 0 45.247208-45.311207l-38.463327-38.527326A448.056159 448.056159 0 0 0 575.98992 132.477682V63.99888h31.99944a31.99944 31.99944 0 0 0 0-63.99888h-191.99664z m66.430838 193.14862a389.945176 389.945176 0 0 1 59.134965 0 383.99328 383.99328 0 1 1-59.134965 0zM0 223.99608c0 48.191157 21.311627 91.4544 55.039037 120.765887A514.231001 514.231001 0 0 1 280.763087 119.037917 159.9972 159.9972 0 0 0 0 223.99608zM863.98488 63.99888c-48.191157 0-91.4544 21.311627-120.765886 55.039037a514.231001 514.231001 0 0 1 225.724049 225.72405A159.9972 159.9972 0 0 0 863.98488 63.99888z" /></svg>