<?xml version="1.0" standalone="no"?><!DOCTYPE svg PUBLIC "-//W3C//DTD SVG 1.1//EN" "http://www.w3.org/Graphics/SVG/1.1/DTD/svg11.dtd"><svg class="icon" width="200px" height="200.00px" viewBox="0 0 1024 1024" version="1.1" xmlns="http://www.w3.org/2000/svg"><path fill="#1296db" d="M511.95332 1023.897a505.461714 505.461714 0 0 1-198.723887-40.380977c-60.914965-25.880985-115.693934-62.891964-162.824908-110.022938-47.129973-47.129973-84.140952-101.901942-110.021938-162.823908A505.461714 505.461714 0 0 1 0.00061 511.94529c0-85.709951 24.226986-176.5929 68.222961-255.929855 4.890997-7.922996 14.956992-13.656992 23.998987-13.656992 1.819999 0 5.244997 0.276 7.679995 2.094999 9.773994 7.332996 15.419991 22.352987 7.953996 34.79698l-0.276 0.457-0.252 0.472999c-39.915977 74.839958-60.157966 152.829913-60.157966 231.764869 0 256.282855 208.498882 464.780737 464.781737 464.780737s464.781737-208.497882 464.781737-464.780737S768.236175 47.163553 511.95332 47.163553c-78.942955 0-156.924911 20.240989-231.779869 60.165966l-0.464999 0.252-0.45 0.268c-4.937997 2.960998-10.190994 4.527997-15.207992 4.527997-7.292996 0-13.341992-3.228998-17.53299-9.348994-3.921998-11.191994-3.709998-26.691985 9.499995-34.803981C335.34442 24.227566 426.228369 0.00058 511.94432 0.00058A505.429714 505.429714 0 0 1 710.670207 40.381557c60.906966 25.873985 115.693934 62.891964 162.824908 110.022938 47.122973 47.122973 84.140952 101.901942 110.021938 162.823908 26.794985 63.072964 40.381977 129.933926 40.381977 198.723887s-13.586992 135.659923-40.381977 198.724887C957.636068 771.590143 920.625089 826.370112 873.494115 873.500085c-47.130973 47.130973-101.909942 84.140952-162.824908 110.022938a505.524714 505.524714 0 0 1-198.715887 40.372977z"  /><path fill="#1296db" d="M716.088204 531.013279c-23.572987-52.34497-57.479967-102.287942-93.363947-155.160912-25.014986-36.852979-50.872971-74.949958-73.587958-114.747935l-0.18-0.323-38.506978-78.344955a1190.186326 1190.186326 0 0 0-16.587991 32.929981c-7.757996 15.783991-15.783991 32.111982-24.226986 46.855973-23.123987 40.538977-47.941973 79.115955-71.948959 116.425935-30.944982 48.075973-62.929964 97.789945-91.819948 152.513913-28.094984 69.444961-21.454988 144.449918 18.256989 205.867884C365.763403 801.442126 437.610362 841.470103 511.63032 841.470103c1.251999 0 2.496999-0.016 3.756998-0.04 75.760957-1.235999 145.023918-41.239977 185.255895-107.005939 38.489978-62.929964 44.255975-138.974921 15.444991-203.409885z m-41.593976 166.194906c-30.709983 58.323967-95.537946 103.595941-157.932911 106.06094h-0.716999c-65.269963-1.559999-126.877928-41.869976-160.902909-100.137943-34.60798-59.283966-34.213981-131.358926-6.394996-188.295894 25.313986-49.493972 83.896952-140.54292 130.121926-203.953884a37.293979 37.293979 0 0 1 61.158965 0.67c21.375988 30.637983 49.469972 71.609959 66.994962 99.939943 19.461989 31.473982 37.844979 61.198965 50.910971 81.164954l0.331 0.535c40.341977 69.365961 49.186972 141.81892 16.429991 204.016884z m-172.748902-102.909942c-63.993964 35.19898-126.474928 15.074991-159.38991-1.015999-1.590999 36.560979 7.529996 74.523958 27.132985 108.108939 31.796982 54.462969 85.015952 86.534951 146.032917 87.99995l0.67-0.008c50.414971-1.991999 99.231944-29.715983 130.097926-72.412959a416.099764 416.099764 0 0 0 20.603988-37.332979c14.051992-34.58498 16.602991-71.964959 7.742996-109.778938-36.332979-8.615995-101.846942-14.633992-172.889902 24.439986z"  /></svg>