<?xml version="1.0" standalone="no"?><!DOCTYPE svg PUBLIC "-//W3C//DTD SVG 1.1//EN" "http://www.w3.org/Graphics/SVG/1.1/DTD/svg11.dtd"><svg class="icon" width="200px" height="141.73px" viewBox="0 0 1445 1024" version="1.1" xmlns="http://www.w3.org/2000/svg"><path fill="#707070" d="M1.084235 297.321412l131.312941 130.16847a838.896941 838.896941 0 0 1 590.667295-242.627764c221.605647 0 434.055529 87.280941 590.727529 242.627764l131.373176-130.16847c-398.396235-395.143529-1044.961882-395.143529-1444.080941 0z m525.131294 520.613647l196.969412 195.343059 196.969412-195.343059a279.612235 279.612235 0 0 0-196.969412-80.956235 279.612235 279.612235 0 0 0-196.969412 80.956235z m-262.565647-260.216471l131.312942 130.168471c181.308235-179.621647 475.075765-179.621647 656.444235 0l131.312941-130.168471c-253.590588-251.361882-665.057882-251.361882-919.070118 0z" /></svg>