<svg xmlns="http://www.w3.org/2000/svg"  viewBox="0 0 64 64" width="512px" height="512px"><polygon fill="#fff8ee" points="59.085,32 32.915,60 4.915,32 32.915,4"/><polygon fill="#f9dd8f" points="5.333,32.5 32.167,59.5 25.75,38"/><polygon fill="#dbb2ba" points="59.083,32.083 32.833,4.333 38.333,27.333"/><path fill="#8d6c9f" d="M9,57c-0.552,0-1-0.447-1-1v-2c0-0.553,0.448-1,1-1s1,0.447,1,1v2C10,56.553,9.552,57,9,57z"/><path fill="#8d6c9f" d="M14,57c-0.552,0-1-0.447-1-1v-2c0-0.553,0.448-1,1-1s1,0.447,1,1v2C15,56.553,14.552,57,14,57z"/><path fill="#8d6c9f" d="M19,57c-0.552,0-1-0.447-1-1v-2c0-0.553,0.448-1,1-1s1,0.447,1,1v2C20,56.553,19.552,57,19,57z"/><path fill="#8d6c9f" d="M45,57c-0.552,0-1-0.447-1-1v-2c0-0.553,0.448-1,1-1s1,0.447,1,1v2C46,56.553,45.552,57,45,57z"/><path fill="#8d6c9f" d="M50,57c-0.552,0-1-0.447-1-1v-2c0-0.553,0.448-1,1-1s1,0.447,1,1v2C51,56.553,50.552,57,50,57z"/><path fill="#8d6c9f" d="M55,57c-0.552,0-1-0.447-1-1v-2c0-0.553,0.448-1,1-1s1,0.447,1,1v2C56,56.553,55.552,57,55,57z"/><polygon fill="#efc88e" points="21.153,23.702 38.5,27.75 42.129,42.847 25.75,38"/><polygon fill="#f9e3ae" points="32.704,4.754 38.5,27.75 21.153,23.702"/><polygon fill="#efd8be" points="21.054,23.8 4.915,32 18.915,18 32.915,4"/><path fill="#8d6c9f" d="M4.916,33c-0.312,0-0.616-0.146-0.81-0.413c-0.289-0.397-0.245-0.946,0.103-1.294l28-28 c0.356-0.357,0.923-0.395,1.322-0.081c0.398,0.311,0.502,0.869,0.243,1.302l-11.861,19.8c-0.097,0.162-0.237,0.293-0.405,0.378 l-16.139,8.2C5.224,32.965,5.069,33,4.916,33z M27.895,10.435L10.071,28.259l10.273-5.22L27.895,10.435z"/><g><polygon fill="#d3a9b0" points="25.75,38 42.129,42.847 32.833,59.333"/></g><g><polygon fill="#c4939c" points="42.031,42.946 32.915,60 59.085,32"/><path fill="#8d6c9f" d="M32.915,61c-0.203,0-0.406-0.062-0.582-0.187c-0.408-0.293-0.537-0.842-0.3-1.285l9.115-17.054 c0.081-0.15,0.198-0.277,0.342-0.37l17.054-10.946c0.424-0.271,0.985-0.187,1.308,0.201c0.323,0.388,0.307,0.955-0.038,1.323 l-26.169,28C33.451,60.892,33.184,61,32.915,61z M42.79,43.647l-5.397,10.098l15.496-16.58L42.79,43.647z"/></g><g><path fill="#8d6c9f" d="M32.916,61c-0.422,0-0.814-0.269-0.951-0.691L20.202,24.011c-0.111-0.343-0.03-0.718,0.213-0.983 c0.242-0.264,0.61-0.38,0.959-0.301l37.683,8.543c0.539,0.122,0.876,0.658,0.754,1.196c-0.122,0.539-0.657,0.877-1.196,0.755 l-35.969-8.154l11.221,34.625c0.17,0.525-0.118,1.09-0.643,1.26C33.122,60.984,33.018,61,32.916,61z"/></g><g><path fill="#8d6c9f" d="M42.129,43.848c-0.094,0-0.188-0.013-0.28-0.04L4.636,32.96c-0.53-0.154-0.835-0.71-0.68-1.24 c0.155-0.529,0.71-0.834,1.24-0.68l35.55,10.362L31.699,4.487c-0.131-0.537,0.197-1.078,0.733-1.21 c0.531-0.131,1.077,0.197,1.209,0.733L43.1,42.609c0.085,0.348-0.021,0.714-0.28,0.961C42.632,43.751,42.383,43.848,42.129,43.848z"/></g><g><path fill="#8d6c9f" d="M32.916,61c-0.265,0-0.52-0.105-0.707-0.293l-28-28c-0.391-0.391-0.391-1.023,0-1.414l28-28 C32.4,3.102,32.681,3.014,32.933,3c0.271,0.005,0.528,0.119,0.713,0.317l26.169,28c0.359,0.384,0.359,0.981,0,1.365l-26.169,28 c-0.185,0.198-0.442,0.313-0.713,0.317C32.927,61,32.921,61,32.916,61z M6.33,32l26.562,26.562L57.716,32L32.891,5.438L6.33,32z"/></g></svg>