<svg xmlns="http://www.w3.org/2000/svg"  viewBox="0 0 100 100" width="500px" height="500px"><path fill="#f1bc19" d="M77,12c-0.552,0-1,0.448-1,1s0.448,1,1,1s1-0.448,1-1S77.552,12,77,12z"/><path fill="#e6edb7" d="M50,13c-20.435,0-37,16.565-37,37s16.565,37,37,37s37-16.565,37-37S70.435,13,50,13z"/><path fill="#8889b9" d="M35,72.3c-4.025,0-7.3-3.274-7.3-7.3V35c0-4.025,3.274-7.3,7.3-7.3h30c4.025,0,7.3,3.274,7.3,7.3v30 c0,4.025-3.274,7.3-7.3,7.3H35z"/><path fill="#472b29" d="M65,28.4c3.639,0,6.6,2.961,6.6,6.6v30c0,3.639-2.961,6.6-6.6,6.6H35c-3.639,0-6.6-2.961-6.6-6.6V35 c0-3.639,2.961-6.6,6.6-6.6H65 M65,27H35c-4.4,0-8,3.6-8,8v30c0,4.4,3.6,8,8,8h30c4.4,0,8-3.6,8-8V35C73,30.6,69.4,27,65,27L65,27z"/><path fill="#472b29" d="M64,69H36c-2.757,0-5-2.243-5-5V36c0-2.757,2.243-5,5-5h25.375c0.276,0,0.5,0.224,0.5,0.5 s-0.224,0.5-0.5,0.5H36c-2.206,0-4,1.794-4,4v28c0,2.206,1.794,4,4,4h28c2.206,0,4-1.794,4-4V49.625c0-0.276,0.224-0.5,0.5-0.5 s0.5,0.224,0.5,0.5V64C69,66.757,66.757,69,64,69z"/><path fill="#472b29" d="M68.5,47.375c-0.276,0-0.5-0.224-0.5-0.5V43c0-0.276,0.224-0.5,0.5-0.5S69,42.724,69,43v3.875 C69,47.151,68.776,47.375,68.5,47.375z"/><path fill="#472b29" d="M68.5,40.5c-0.276,0-0.5-0.224-0.5-0.5v-2c0-0.276,0.224-0.5,0.5-0.5S69,37.724,69,38v2 C69,40.276,68.776,40.5,68.5,40.5z"/><path fill="#f1bc19" d="M83,11c-2.209,0-4,1.791-4,4s1.791,4,4,4s4-1.791,4-4S85.209,11,83,11z"/><path fill="#88ae45" d="M87,22c-1.105,0-2,0.895-2,2s0.895,2,2,2s2-0.895,2-2S88.105,22,87,22z"/><path fill="#fbcd59" d="M81,74c-1.105,0-2,0.895-2,2s0.895,2,2,2s2-0.895,2-2S82.105,74,81,74z M15,59c-2.209,0-4,1.791-4,4 c0,2.209,1.791,4,4,4s4-1.791,4-4C19,60.791,17.209,59,15,59z"/><path fill="#88ae45" d="M25,85c-1.105,0-2,0.895-2,2s0.895,2,2,2s2-0.895,2-2S26.105,85,25,85z"/><path fill="#fff" d="M18.5,49c-1.381,0-2.5,1.119-2.5,2.5s1.119,2.5,2.5,2.5s2.5-1.119,2.5-2.5S19.881,49,18.5,49z M79.5,32c-0.828,0-1.5,0.672-1.5,1.5s0.672,1.5,1.5,1.5s1.5-0.672,1.5-1.5S80.328,32,79.5,32z"/><path fill="#fff" d="M40.273,58.696c-0.271,0-0.51-0.052-0.717-0.156c-0.209-0.104-0.312-0.26-0.312-0.468v-16.32 c0-0.159,0.078-0.296,0.234-0.407c0.155-0.112,0.369-0.177,0.64-0.192h5.74c1.206,0,2.298,0.168,3.276,0.504 c0.978,0.336,1.747,0.876,2.309,1.62s0.843,1.732,0.843,2.964v0.24c0,1.248-0.286,2.248-0.858,3s-1.353,1.296-2.34,1.632 c-0.988,0.336-2.086,0.504-3.292,0.504h-4.492v6.456c0,0.208-0.109,0.364-0.328,0.468C40.757,58.644,40.523,58.696,40.273,58.696z M41.303,50.224h4.492c1.394,0,2.48-0.301,3.261-0.9s1.17-1.524,1.17-2.771v-0.265c0-1.248-0.39-2.172-1.17-2.771 c-0.78-0.601-1.867-0.9-3.261-0.9h-4.492V50.224z"/><path fill="#fff" d="M55.246,58.696c-0.271,0-0.504-0.063-0.702-0.192c-0.197-0.128-0.296-0.271-0.296-0.432V47.944 c0-0.192,0.099-0.34,0.296-0.444c0.198-0.104,0.432-0.155,0.702-0.155s0.499,0.052,0.687,0.155 c0.188,0.104,0.281,0.252,0.281,0.444v1.176c0.229-0.336,0.54-0.647,0.936-0.936c0.395-0.288,0.863-0.524,1.404-0.708 c0.54-0.184,1.154-0.276,1.841-0.276h1.092c0.229,0,0.421,0.072,0.577,0.216c0.156,0.145,0.234,0.312,0.234,0.504 c0,0.208-0.078,0.381-0.234,0.517s-0.349,0.204-0.577,0.204h-1.092c-0.687,0-1.348,0.144-1.981,0.432 c-0.635,0.288-1.149,0.688-1.544,1.2c-0.396,0.512-0.594,1.136-0.594,1.872v5.928c0,0.16-0.099,0.304-0.296,0.432 C55.781,58.632,55.537,58.696,55.246,58.696z"/><path fill="#472b29" d="M40.273,58.946c-0.31,0-0.589-0.062-0.829-0.183c-0.372-0.185-0.45-0.478-0.45-0.691v-16.32 c0-0.168,0.059-0.411,0.339-0.61c0.193-0.14,0.453-0.221,0.771-0.239h5.755c1.228,0,2.357,0.174,3.357,0.518 c1.021,0.351,1.838,0.925,2.427,1.706c0.593,0.785,0.894,1.833,0.894,3.114v0.24c0,1.298-0.306,2.358-0.909,3.151 c-0.601,0.789-1.428,1.366-2.459,1.717c-1.009,0.344-2.144,0.518-3.372,0.518h-4.242v6.206c0,0.304-0.167,0.55-0.472,0.693 C40.834,58.886,40.56,58.946,40.273,58.946z M40.118,41.402c-0.207,0.013-0.377,0.062-0.493,0.145s-0.131,0.153-0.131,0.205v16.32 c0,0.082,0.021,0.168,0.174,0.244c0.33,0.165,0.82,0.181,1.199-0.002c0.164-0.077,0.187-0.162,0.187-0.242v-6.456 c0-0.138,0.112-0.25,0.25-0.25h4.492c1.173,0,2.254-0.165,3.212-0.49c0.935-0.318,1.683-0.839,2.221-1.547 c0.536-0.704,0.808-1.662,0.808-2.849v-0.24c0-1.17-0.267-2.116-0.792-2.813c-0.528-0.7-1.266-1.216-2.19-1.534 c-0.948-0.325-2.022-0.49-3.195-0.49H40.118z M45.795,50.474h-4.492c-0.138,0-0.25-0.112-0.25-0.25v-7.608 c0-0.138,0.112-0.25,0.25-0.25h4.492c1.444,0,2.593,0.32,3.413,0.952c0.841,0.646,1.268,1.646,1.268,2.97v0.265 c0,1.324-0.427,2.323-1.268,2.97C48.386,50.154,47.238,50.474,45.795,50.474z M41.553,49.974h4.242 c1.33,0,2.376-0.285,3.108-0.849c0.722-0.555,1.072-1.396,1.072-2.573v-0.265c0-1.177-0.351-2.019-1.072-2.573 c-0.731-0.563-1.777-0.849-3.108-0.849h-4.242V49.974z"/><path fill="#472b29" d="M55.247,58.946c-0.318,0-0.601-0.078-0.839-0.232c-0.271-0.177-0.409-0.393-0.409-0.642V47.944 c0-0.2,0.074-0.478,0.429-0.665c0.473-0.247,1.179-0.245,1.627,0.002c0.339,0.189,0.41,0.465,0.41,0.663v0.492 c0.16-0.158,0.34-0.31,0.538-0.454c0.413-0.302,0.908-0.552,1.472-0.742c0.565-0.192,1.211-0.29,1.921-0.29h1.092 c0.292,0,0.543,0.095,0.746,0.281c0.21,0.194,0.315,0.426,0.315,0.688c0,0.279-0.11,0.523-0.32,0.705 c-0.203,0.177-0.452,0.266-0.741,0.266h-1.092c-0.648,0-1.28,0.138-1.878,0.409c-0.594,0.27-1.082,0.648-1.449,1.125 c-0.359,0.466-0.542,1.044-0.542,1.72v5.928c0,0.249-0.138,0.465-0.41,0.642C55.878,58.868,55.586,58.946,55.247,58.946z M55.247,47.595c-0.228,0-0.425,0.043-0.587,0.127c-0.142,0.075-0.161,0.151-0.161,0.223v10.128c0,0.086,0.099,0.168,0.182,0.222 c0.33,0.214,0.86,0.196,1.163,0c0.084-0.054,0.183-0.136,0.183-0.222v-5.928c0-0.789,0.218-1.471,0.646-2.025 c0.419-0.542,0.97-0.971,1.639-1.274c0.663-0.302,1.364-0.454,2.085-0.454h1.092c0.167,0,0.303-0.047,0.413-0.143 c0.102-0.088,0.148-0.192,0.148-0.328c0-0.121-0.049-0.223-0.154-0.32c-0.109-0.101-0.242-0.149-0.407-0.149h-1.092 c-0.654,0-1.247,0.089-1.761,0.263c-0.515,0.175-0.965,0.401-1.337,0.674c-0.37,0.27-0.665,0.563-0.876,0.874 c-0.062,0.091-0.175,0.128-0.28,0.099c-0.105-0.032-0.177-0.13-0.177-0.239v-1.176c0-0.073-0.019-0.151-0.153-0.226 C55.663,47.637,55.473,47.595,55.247,47.595z"/></svg>